<?xml version="1.0" standalone="no"?>
<!DOCTYPE svg PUBLIC "-//W3C//DTD SVG 20010904//EN"
 "http://www.w3.org/TR/2001/REC-SVG-20010904/DTD/svg10.dtd">
<svg version="1.0" xmlns="http://www.w3.org/2000/svg"
 width="579.000000pt" height="579.000000pt" viewBox="0 0 579.000000 579.000000"
 preserveAspectRatio="xMidYMid meet">
<metadata>
Created by potrace 1.11, written by Peter Selinger 2001-2013
</metadata>
<g transform="translate(0.000000,579.000000) scale(0.100000,-0.100000)"
fill="#000000" stroke="none">
<path d="M4378 5605 c-2 -1 -39 -6 -83 -9 -384 -30 -683 -162 -859 -380 -87
-107 -168 -255 -197 -356 -7 -25 -14 -49 -16 -55 -29 -92 -46 -249 -46 -448
l-1 -158 -45 6 c-45 7 -61 9 -166 19 -472 49 -954 8 -1305 -111 -458 -155
-770 -455 -880 -847 -11 -39 -22 -88 -26 -110 -3 -21 -8 -48 -10 -60 -2 -11
-7 -50 -10 -86 l-6 -65 530 0 c292 0 533 2 536 5 2 3 7 23 10 45 17 124 46
206 100 288 82 123 217 200 411 232 79 13 370 14 425 1 14 -4 39 -8 55 -11
101 -14 228 -83 288 -157 77 -94 107 -200 103 -358 -3 -111 -25 -169 -86 -224
-131 -118 -325 -170 -825 -221 -33 -4 -71 -8 -85 -11 -14 -2 -50 -6 -80 -9
-30 -3 -66 -8 -80 -10 -14 -3 -43 -7 -65 -10 -22 -3 -51 -8 -65 -11 -58 -11
-69 -13 -106 -18 -63 -10 -263 -56 -339 -77 -480 -136 -759 -421 -831 -850 -3
-19 -8 -110 -10 -204 -5 -246 21 -382 106 -560 83 -172 208 -314 365 -412 83
-52 269 -133 338 -147 12 -3 63 -14 112 -25 50 -11 124 -23 165 -27 98 -10
386 -11 475 -1 195 21 465 87 610 148 136 58 308 172 406 269 44 43 41 45 54
-50 10 -80 15 -103 38 -190 l22 -85 543 -3 542 -2 -19 37 c-21 42 -58 158 -66
207 -3 17 -7 42 -10 56 -2 14 -7 48 -12 75 -9 64 -10 2763 -1 2778 5 9 129 12
460 12 l453 0 1 358 1 357 -459 0 -458 0 -1 23 c-3 76 0 281 5 332 20 203 82
288 241 329 46 12 97 15 220 12 88 -2 171 -6 185 -9 14 -3 70 -13 125 -21 55
-9 109 -18 121 -20 l21 -4 1 371 c0 205 -2 379 -4 388 -3 9 -16 16 -32 17 -15
1 -43 4 -62 7 -19 2 -75 9 -125 15 -49 6 -106 13 -125 16 -38 6 -466 14 -472
9z m-1192 -3727 c-4 -356 -20 -456 -93 -603 -60 -120 -108 -176 -223 -261
-136 -101 -269 -137 -515 -138 -232 -1 -311 12 -433 70 -118 57 -195 148 -227
269 -15 56 -22 212 -11 260 22 104 63 182 132 250 137 134 330 193 859 260 22
2 51 7 65 10 14 3 39 7 55 10 147 25 333 92 380 136 5 5 10 9 12 9 1 0 1 -123
-1 -272z"/>
</g>
</svg>
